<?xml version="1.0" standalone="no"?>
<!DOCTYPE svg PUBLIC "-//W3C//DTD SVG 20010904//EN"
 "http://www.w3.org/TR/2001/REC-SVG-20010904/DTD/svg10.dtd">
<svg version="1.0" xmlns="http://www.w3.org/2000/svg"
 width="2048.000000pt" height="1357.000000pt" viewBox="0 0 2048.000000 1357.000000"
 preserveAspectRatio="xMidYMid meet">
<metadata>
Created by potrace 1.15, written by Peter Selinger 2001-2017
</metadata>
<g transform="translate(0.000000,1357.000000) scale(0.100000,-0.100000)"
fill="#000000" stroke="none">
<path d="M6243 13331 c-174 -61 -273 -176 -320 -375 -23 -97 -23 -325 0 -420
48 -194 178 -320 372 -361 90 -19 290 -19 380 0 207 44 356 194 400 403 19 88
19 297 0 387 -31 147 -120 277 -231 337 -87 47 -151 58 -344 58 -166 0 -179
-2 -257 -29z m354 -191 c18 -10 39 -33 48 -49 66 -129 71 -493 7 -621 -36 -74
-72 -92 -171 -88 -68 3 -75 6 -102 35 -15 18 -35 56 -44 85 -38 126 -43 404
-9 517 17 59 56 108 99 127 46 20 134 17 172 -6z"/>
<path d="M7505 13263 l0 -93 33 0 c18 0 48 -7 67 -14 l35 -15 0 -369 c0 -416
6 -387 -81 -406 l-51 -12 0 -84 0 -85 341 -3 341 -2 0 89 0 89 -47 7 c-90 13
-93 18 -92 153 l0 117 54 43 c30 23 60 45 67 47 14 5 188 -300 188 -329 0 -19
-31 -36 -64 -36 -26 0 -26 0 -26 -90 l0 -90 345 0 345 0 0 90 0 90 -29 0 c-57
0 -91 20 -130 79 -49 73 -331 520 -331 525 0 2 43 36 96 76 111 83 181 118
253 127 l51 6 0 88 0 89 -305 0 -305 0 0 -89 0 -90 33 -3 c29 -3 32 -6 35 -39
3 -36 1 -38 -137 -148 l-141 -111 0 129 c0 149 6 161 90 169 l50 5 0 88 0 88
-342 3 -343 3 0 -92z"/>
<path d="M10569 13341 c-185 -59 -302 -193 -343 -394 -20 -96 -21 -308 -2
-398 30 -142 123 -269 239 -327 166 -84 484 -84 649 -1 115 58 207 164 247
284 42 129 50 322 19 469 -38 183 -161 317 -337 370 -81 24 -394 22 -472 -3z
m351 -216 c52 -50 80 -175 80 -365 0 -196 -30 -308 -93 -354 -38 -28 -151 -35
-196 -11 -73 37 -105 176 -99 434 3 161 4 168 33 226 40 80 90 108 182 103 53
-3 67 -9 93 -33z"/>
<path d="M11800 13263 l0 -93 35 0 c20 0 51 -7 70 -14 l35 -15 0 -370 0 -370
-22 -15 c-12 -9 -44 -19 -70 -22 l-48 -7 0 -88 0 -89 345 0 345 0 0 89 0 88
-48 7 c-87 11 -92 19 -92 154 l0 117 60 48 c32 26 63 47 67 47 8 0 162 -276
177 -319 11 -30 -13 -51 -56 -51 l-28 0 0 -90 0 -90 345 0 345 0 0 89 0 88
-45 5 c-25 3 -55 12 -68 21 -18 12 -377 564 -377 580 0 2 42 36 93 75 105 81
183 120 256 129 l51 6 0 88 0 89 -305 0 -305 0 0 -89 0 -90 33 -3 c29 -3 32
-6 35 -39 3 -35 0 -38 -137 -147 l-141 -112 0 129 c0 149 6 161 90 169 l50 5
0 88 0 88 -345 3 -345 3 0 -92z"/>
<path d="M16511 13335 c-240 -83 -347 -267 -345 -595 1 -211 43 -338 146 -441
95 -95 231 -139 433 -139 213 0 341 44 451 154 118 119 158 247 152 491 -4
131 -8 160 -32 229 -50 147 -140 244 -274 298 -52 20 -76 23 -257 25 -192 3
-203 2 -274 -22z m350 -198 c46 -31 74 -106 90 -237 14 -121 6 -287 -16 -375
-30 -114 -82 -151 -202 -143 -58 4 -69 8 -94 36 -39 43 -58 115 -71 270 -17
203 7 357 65 421 51 55 166 70 228 28z"/>
<path d="M17923 13353 l-353 -3 0 -90 0 -90 33 0 c17 -1 42 -6 55 -13 12 -7
86 -110 162 -228 l140 -214 0 -157 c0 -181 0 -181 -97 -194 l-53 -7 0 -88 0
-89 360 0 360 0 0 88 0 88 -67 11 c-42 8 -72 19 -80 29 -9 13 -13 62 -13 165
l0 148 151 220 c155 226 169 241 235 241 22 0 23 4 26 93 l3 92 -205 0 -205 0
3 -92 c3 -91 4 -92 30 -95 18 -2 28 -10 30 -23 1 -11 -31 -75 -71 -141 l-73
-121 -62 129 c-35 72 -61 137 -58 144 4 9 22 14 56 14 l50 0 0 95 c0 52 -1 94
-2 93 -2 -2 -162 -4 -355 -5z"/>
<path d="M19319 13323 c-128 -66 -188 -181 -176 -335 18 -234 130 -320 496
-384 141 -25 227 -52 243 -77 11 -17 10 -75 -2 -97 -5 -10 -30 -26 -55 -35
-65 -25 -267 -17 -347 14 -62 24 -124 83 -134 128 -14 65 -12 63 -72 63 -31 0
-74 -3 -94 -6 l-38 -7 0 -203 0 -204 95 0 c92 0 96 1 107 25 18 39 50 41 136
7 112 -44 184 -55 319 -50 133 6 194 24 276 84 62 45 122 138 138 212 18 88 6
193 -30 266 -35 71 -54 92 -134 139 -62 38 -166 69 -305 93 -130 22 -237 53
-261 75 -29 27 -27 70 5 100 24 23 32 24 152 24 111 -1 134 -4 179 -24 64 -28
118 -86 133 -141 l11 -40 82 6 c45 3 88 7 95 10 9 2 12 51 12 196 l0 193 -84
-3 c-74 -3 -87 -6 -107 -28 -29 -31 -55 -30 -159 6 -81 28 -93 30 -247 30
l-162 0 -72 -37z"/>
<path d="M14510 13257 l0 -95 51 -7 c93 -13 89 5 89 -395 0 -328 -1 -351 -19
-369 -17 -17 -103 -37 -118 -28 -5 3 -7 -38 -5 -90 l3 -95 462 5 c504 5 535 8
624 63 59 37 98 106 113 199 30 188 -33 298 -204 356 -28 10 -42 18 -31 18 33
1 100 50 128 94 31 47 41 106 35 191 -9 106 -62 180 -157 218 -54 22 -68 23
-513 26 l-458 3 0 -94z m687 -159 c25 -21 35 -60 28 -115 -9 -78 -29 -96 -106
-101 l-64 -4 0 122 0 122 64 -6 c35 -3 70 -11 78 -18z m22 -401 c54 -19 73
-54 75 -134 2 -127 -35 -163 -166 -163 l-73 0 0 155 0 155 65 -1 c36 0 80 -5
99 -12z"/>
<path d="M5543 11562 c-284 -605 -1275 -2711 -1475 -3133 l-130 -276 -72 48
c-107 71 -191 101 -306 106 -120 6 -203 -12 -327 -72 -142 -69 -292 -191 -441
-360 -48 -53 -62 -65 -62 -49 0 12 -16 53 -35 92 -42 83 -116 156 -198 195
-196 92 -481 43 -732 -126 -225 -152 -359 -429 -406 -838 l-12 -105 -60 -11
c-102 -20 -182 -66 -278 -162 -120 -120 -213 -270 -299 -486 -107 -268 -190
-639 -220 -980 -48 -570 98 -1496 330 -2080 115 -291 247 -512 416 -694 l67
-72 -25 -57 c-14 -31 -254 -541 -533 -1132 -279 -591 -509 -1083 -512 -1093
-5 -16 346 -17 7283 -17 l7289 0 400 851 400 850 151 39 c368 94 627 231 823
436 106 110 165 199 299 444 153 282 195 422 195 645 -1 153 -22 246 -80 358
-42 79 -126 171 -192 207 l-41 24 41 14 c121 41 214 134 294 297 81 163 100
241 99 400 -1 108 -6 147 -29 230 -15 55 -29 109 -32 121 -5 20 53 145 1085
2334 200 426 400 849 442 940 42 91 351 746 685 1455 995 2112 1025 2177 1025
2186 0 5 -3033 9 -7287 9 l-7288 0 -252 -538z m-1860 -3407 c135 -54 282 -174
327 -270 76 -157 10 -332 -216 -578 -301 -328 -357 -401 -458 -597 -99 -192
-156 -374 -193 -610 -29 -192 -23 -589 13 -797 6 -30 8 -31 42 -26 21 3 38 7
39 7 1 1 -5 58 -14 127 -10 80 -17 202 -17 341 l-1 218 39 32 c64 54 211 144
289 176 379 158 800 101 1222 -164 506 -318 824 -780 825 -1199 0 -112 -14
-178 -62 -293 -72 -174 -158 -256 -308 -293 -76 -20 -93 -21 -160 -10 -142 22
-243 88 -296 193 -22 44 -27 71 -34 182 -13 200 -56 302 -180 426 -273 274
-676 244 -975 -72 -146 -153 -301 -440 -359 -666 -77 -296 -6 -565 203 -773
268 -267 736 -375 900 -207 16 16 70 105 121 196 177 321 283 452 416 514 153
72 338 40 466 -80 56 -53 88 -102 120 -188 19 -52 22 -78 22 -224 0 -149 -3
-174 -27 -255 -44 -147 -234 -508 -343 -652 -140 -183 -335 -319 -598 -417
-190 -71 -490 -137 -768 -167 l-118 -13 0 -38 c0 -36 1 -38 33 -38 17 0 79 7
137 15 160 22 148 26 139 -48 -32 -263 -255 -430 -608 -456 -225 -16 -469 13
-785 93 -584 149 -948 384 -1058 682 -17 47 -22 81 -23 166 0 58 3 109 6 113
4 3 30 -8 59 -26 211 -130 477 -159 757 -84 91 25 287 102 330 130 21 14 22
16 5 45 -20 36 -22 36 -73 10 -80 -42 -212 -90 -316 -116 -92 -24 -128 -28
-243 -27 -117 0 -147 4 -223 27 -162 48 -269 115 -403 251 -342 346 -587 1036
-694 1950 -27 235 -36 558 -21 740 62 702 317 1334 594 1469 58 29 147 48 183
41 13 -3 35 -7 49 -10 34 -7 92 -61 116 -106 74 -146 75 -369 4 -994 -19 -165
-39 -367 -46 -450 -14 -177 -6 -444 15 -530 9 -33 15 -65 16 -72 0 -6 -28 -33
-62 -60 -83 -65 -184 -159 -208 -194 l-20 -27 30 -22 30 -21 77 76 c323 323
788 505 1290 505 l104 0 -3 38 -3 37 -115 0 c-63 0 -156 -3 -206 -7 l-92 -8
-11 78 c-24 165 -31 253 -31 407 0 270 39 524 140 920 27 105 69 269 94 365
56 221 110 473 131 614 15 104 19 113 63 175 81 114 220 267 310 344 235 196
431 255 615 182z m5735 4 c70 -24 206 -115 264 -177 117 -124 133 -247 53
-407 -47 -95 -100 -163 -265 -341 -214 -231 -294 -337 -389 -515 -145 -275
-214 -585 -214 -959 0 -179 22 -454 37 -479 7 -11 76 0 76 13 0 6 -7 65 -16
131 -9 72 -16 204 -17 329 l-1 210 51 46 c144 128 382 226 609 251 254 27 557
-49 824 -206 354 -210 607 -461 759 -755 101 -196 151 -399 136 -550 -15 -140
-103 -339 -189 -425 -147 -147 -418 -147 -575 0 -72 68 -92 121 -101 280 -6
89 -15 149 -29 189 -105 297 -428 469 -741 394 -70 -17 -199 -80 -267 -132
-175 -132 -325 -359 -436 -656 -55 -146 -71 -242 -64 -384 7 -177 56 -303 171
-444 243 -301 778 -453 955 -272 20 20 76 110 125 200 168 309 278 445 410
510 197 97 459 7 558 -191 83 -164 82 -411 -2 -640 -31 -87 -197 -395 -273
-509 -180 -269 -461 -441 -895 -551 -155 -39 -409 -82 -556 -95 l-78 -7 6 -35
c3 -19 8 -37 10 -40 3 -3 71 3 151 13 81 9 149 15 152 11 12 -12 -19 -145 -48
-206 -61 -129 -215 -242 -390 -284 -367 -89 -1067 38 -1540 280 -288 147 -461
340 -499 554 -11 63 -6 185 8 194 4 2 36 -13 71 -34 80 -48 221 -95 331 -110
189 -26 429 20 665 129 49 23 91 43 93 45 6 6 -28 66 -37 66 -4 0 -46 -18 -92
-39 -189 -89 -333 -123 -514 -124 -152 -1 -238 18 -370 83 -428 211 -756 871
-909 1831 -99 618 -99 1016 0 1494 112 541 317 928 550 1037 124 58 249 37
308 -52 91 -137 97 -379 26 -1000 -54 -477 -67 -701 -52 -862 7 -67 18 -146
26 -174 l14 -52 -52 -38 c-76 -57 -167 -138 -208 -187 l-37 -44 30 -22 30 -22
98 93 c128 123 257 213 416 292 262 131 546 196 850 196 l106 0 -3 38 -3 37
-80 3 c-44 2 -134 -2 -200 -7 -66 -6 -123 -7 -126 -3 -14 15 -41 243 -46 392
-12 329 27 573 193 1210 83 322 146 602 170 765 11 69 24 123 38 145 70 116
297 361 416 446 194 140 364 180 528 123z m5730 5 c67 -20 177 -90 253 -161
138 -131 162 -258 79 -427 -43 -86 -109 -171 -267 -342 -165 -178 -232 -260
-306 -374 -153 -237 -243 -493 -283 -802 -13 -108 -15 -178 -10 -373 3 -132
12 -278 18 -325 l13 -85 35 3 c19 2 37 6 39 8 2 2 -4 68 -13 148 -9 85 -16
225 -16 339 l0 195 35 30 c154 136 394 238 617 262 420 47 929 -180 1321 -590
168 -175 285 -363 352 -563 66 -199 70 -353 15 -512 -85 -240 -188 -345 -373
-376 -164 -27 -351 56 -415 184 -27 55 -42 136 -42 233 0 232 -179 461 -423
540 -117 38 -267 39 -382 1 -231 -76 -421 -262 -568 -557 -149 -297 -194 -510
-151 -718 33 -159 106 -284 238 -409 141 -133 323 -225 511 -258 104 -18 156
-19 227 -4 121 26 140 46 274 288 183 329 296 458 450 512 138 49 320 3 432
-108 133 -133 174 -373 108 -634 -28 -110 -56 -175 -161 -370 -160 -297 -274
-437 -453 -557 -256 -171 -632 -282 -1147 -339 l-70 -8 3 -35 c2 -19 6 -37 8
-39 2 -3 66 3 142 12 174 22 162 23 162 -15 0 -95 -51 -207 -133 -294 -77 -83
-198 -145 -337 -175 -131 -27 -384 -27 -565 0 -320 48 -634 139 -882 256 -291
138 -490 328 -547 524 -15 52 -22 213 -11 244 5 11 30 2 113 -40 149 -75 234
-95 402 -96 148 -1 239 14 383 62 109 37 267 111 267 125 0 6 -9 22 -19 36
l-19 24 -89 -42 c-189 -89 -341 -126 -518 -126 -251 1 -438 86 -630 286 -141
146 -233 287 -338 521 -242 538 -415 1487 -378 2075 48 759 308 1419 616 1564
54 25 80 31 134 31 120 0 181 -51 224 -187 20 -66 22 -89 21 -316 -1 -220 -5
-281 -42 -600 -53 -457 -66 -668 -52 -831 6 -68 17 -149 25 -179 8 -30 11 -57
7 -60 -4 -3 -29 -24 -57 -45 -64 -50 -225 -206 -225 -218 0 -9 40 -46 52 -47
4 0 33 27 64 61 309 323 801 519 1304 519 l98 0 4 35 c2 20 2 38 -1 40 -8 9
-183 5 -295 -5 -60 -6 -110 -9 -113 -7 -9 9 -33 176 -44 308 -25 304 15 621
137 1099 157 611 196 783 228 996 13 91 13 93 87 190 149 199 340 374 488 449
143 72 263 87 389 49z m-12702 -166 c133 -69 194 -213 181 -428 -8 -124 -69
-429 -152 -750 -154 -600 -191 -771 -215 -1015 -16 -147 -7 -503 15 -625 23
-131 25 -125 -47 -140 -158 -32 -403 -129 -554 -219 l-52 -30 -13 67 c-10 46
-14 139 -13 297 1 199 7 279 42 590 55 477 66 624 58 780 -11 244 -67 379
-180 437 l-39 20 6 96 c17 264 95 515 210 669 83 112 231 207 398 258 72 21
99 25 194 22 96 -3 117 -6 161 -29z m5738 2 c136 -66 193 -198 183 -420 -8
-171 -55 -399 -197 -950 -86 -331 -129 -528 -156 -715 -25 -168 -26 -555 -1
-710 10 -60 19 -118 20 -129 2 -16 -16 -23 -124 -51 -152 -40 -344 -117 -457
-185 -53 -31 -85 -45 -87 -37 -30 85 -41 302 -26 508 6 86 30 315 52 510 49
432 60 703 35 846 -26 152 -83 250 -168 294 -45 23 -46 33 -23 216 37 277 123
498 243 620 92 95 234 176 376 214 102 27 262 22 330 -11z m5748 -3 c69 -34
120 -90 150 -166 21 -50 23 -73 23 -216 -1 -209 -27 -345 -190 -975 -128 -492
-168 -715 -181 -997 -7 -146 6 -346 32 -497 8 -48 14 -89 12 -90 -2 -1 -39
-10 -83 -20 -170 -39 -413 -138 -546 -222 l-38 -24 -11 41 c-18 67 -30 256
-24 374 7 152 29 374 65 680 35 303 49 656 30 771 -27 160 -88 266 -176 308
-41 20 -40 15 -20 186 43 371 167 621 371 750 149 94 272 131 424 127 92 -2
112 -6 162 -30z"/>
</g>
</svg>
